<mxfile host="app.diagrams.net" modified="2021-07-01T07:14:36.006Z" agent="5.0 (Macintosh; Intel Mac OS X 10_14_6) AppleWebKit/537.36 (KHTML, like Gecko) Chrome/91.0.4472.106 Safari/537.36" etag="Oe4lny94Itx0L8WnU-cM" version="14.7.0" type="github">
  <diagram id="RVeoOhdEK9F2SsImCJLL" name="第 1 页">
    <mxGraphModel dx="1426" dy="794" grid="1" gridSize="10" guides="1" tooltips="1" connect="1" arrows="1" fold="1" page="1" pageScale="1" pageWidth="827" pageHeight="1169" math="0" shadow="0">
      <root>
        <mxCell id="0" />
        <mxCell id="1" parent="0" />
        <mxCell id="SI2qPMhBbVkfYptYEFsJ-1" value="获取会话学生列表" style="whiteSpace=wrap;html=1;aspect=fixed;" vertex="1" parent="1">
          <mxGeometry x="350" y="130" width="80" height="80" as="geometry" />
        </mxCell>
        <mxCell id="SI2qPMhBbVkfYptYEFsJ-2" value="获取&lt;br&gt;有会话学生" style="whiteSpace=wrap;html=1;aspect=fixed;" vertex="1" parent="1">
          <mxGeometry x="350" y="240" width="80" height="80" as="geometry" />
        </mxCell>
        <mxCell id="SI2qPMhBbVkfYptYEFsJ-3" value="获取&lt;br&gt;有未读学生&lt;br&gt;&lt;span&gt;hgetall  UNREAD_MSG_LIST_{receiver} &lt;/span&gt;" style="whiteSpace=wrap;html=1;aspect=fixed;" vertex="1" parent="1">
          <mxGeometry x="350" y="360" width="80" height="80" as="geometry" />
        </mxCell>
      </root>
    </mxGraphModel>
  </diagram>
</mxfile>
